<?xml version="1.0" encoding="UTF-8" standalone="no"?>
<!-- Generator: Adobe Illustrator 18.1.1, SVG Export Plug-In . SVG Version: 6.00 Build 0)  -->

<svg
   xmlns:dc="http://purl.org/dc/elements/1.1/"
   xmlns:cc="http://creativecommons.org/ns#"
   xmlns:rdf="http://www.w3.org/1999/02/22-rdf-syntax-ns#"
   xmlns:svg="http://www.w3.org/2000/svg"
   xmlns="http://www.w3.org/2000/svg"
   xmlns:xlink="http://www.w3.org/1999/xlink"
   xmlns:sodipodi="http://sodipodi.sourceforge.net/DTD/sodipodi-0.dtd"
   xmlns:inkscape="http://www.inkscape.org/namespaces/inkscape"
   version="1.1"
   id="Layer_1"
   x="0px"
   y="0px"
   viewBox="0 0 60.000002 159.99999"
   enable-background="new 0 0 334.9 159.1"
   xml:space="preserve"
   inkscape:version="0.91 r13725"
   sodipodi:docname="header-logo.svg"
   width="60"
   height="160"><metadata
     id="metadata103"><rdf:RDF><cc:Work
         rdf:about=""><dc:format>image/svg+xml</dc:format><dc:type
           rdf:resource="http://purl.org/dc/dcmitype/StillImage" /><dc:title></dc:title></cc:Work></rdf:RDF></metadata><defs
     id="defs101"><defs
       id="defs33" /><mask
       maskUnits="userSpaceOnUse"
       x="28.6"
       y="6.8"
       width="56.2"
       height="145.4"
       id="SVGID_1_"><g
         id="g39"><g
           id="g41"><defs
             id="defs43"><rect
               id="SVGID_2_"
               x="10.9"
               y="-1.9"
               width="92.199997"
               height="157.89999" /></defs><clipPath
             id="SVGID_3_"><use
               xlink:href="#SVGID_2_"
               overflow="visible"
               id="use47"
               style="overflow:visible"
               x="0"
               y="0"
               width="100%"
               height="100%" /></clipPath><g
             clip-path="url(#SVGID_3_)"
             id="g49"><image
               sodipodi:absref="/Users/jahed/projects/unruly.github.io/images/AA474712ACD4D0BC.jpg"
               xlink:href="AA474712ACD4D0BC.jpg"
               overflow="visible"
               width="192"
               height="329"
               transform="matrix(0.48,0,0,0.48,10.8718,-1.8715)"
               id="image51"
               style="overflow:visible" /></g></g></g></mask><filter
       inkscape:label="In and Out"
       inkscape:menu="Shadows and Glows"
       inkscape:menu-tooltip="Inner colorized shadow, outer black shadow"
       style="color-interpolation-filters:sRGB"
       id="filter4230"
       height="1.29"
       width="1.63"
       x="-0.46000001"><feGaussianBlur
         result="result0"
         in="SourceAlpha"
         stdDeviation="4"
         id="feGaussianBlur4232"
         dx="-7.2000000000000002" /><feOffset
         dx="-7.2463768115942031"
         dy="5"
         result="result4"
         id="feOffset4234" /><feComposite
         in="SourceGraphic"
         in2="result4"
         operator="xor"
         result="result3"
         id="feComposite4236" /></filter></defs><sodipodi:namedview
     pagecolor="#ffffff"
     bordercolor="#666666"
     borderopacity="1"
     objecttolerance="10"
     gridtolerance="10"
     guidetolerance="10"
     inkscape:pageopacity="0"
     inkscape:pageshadow="2"
     inkscape:window-width="1920"
     inkscape:window-height="1155"
     id="namedview99"
     showgrid="false"
     inkscape:zoom="5.2362641"
     inkscape:cx="18.038221"
     inkscape:cy="117.92181"
     inkscape:window-x="0"
     inkscape:window-y="0"
     inkscape:window-maximized="0"
     inkscape:current-layer="Layer_1" /><g
     id="g5"
     transform="translate(0,0.8999939)"><g
       id="g7"><path
         style="fill:#0db9e9"
         inkscape:connector-curvature="0"
         id="path9"
         d="m 2.3,92.3 c -0.6,0 -1.2,-0.2 -1.6,-0.7 -0.9,-0.9 -0.9,-2.3 0,-3.2 L 45.9,43.2 c 0.9,-0.9 2.3,-0.9 3.2,0 0.9,0.9 0.9,2.3 0,3.2 L 3.9,91.7 c -0.5,0.4 -1.1,0.6 -1.6,0.6 z" /></g><g
       id="g11"><path
         style="fill:#0db9e9"
         inkscape:connector-curvature="0"
         id="path13"
         d="M 8.4,98.5 C 7.8,98.5 7.2,98.3 6.8,97.8 5.9,96.9 5.9,95.5 6.8,94.6 L 52,49.5 c 0.9,-0.9 2.3,-0.9 3.2,0 0.9,0.9 0.9,2.3 0,3.2 L 10,97.8 c -0.5,0.5 -1,0.7 -1.6,0.7 z" /></g></g><g
     id="g15"
     transform="translate(0,0.8999939)"><path
       style="fill:#0db9e9"
       inkscape:connector-curvature="0"
       id="path17"
       d="m 14.2,104.3 c -0.6,0 -1.2,-0.2 -1.6,-0.7 -0.9,-0.9 -0.9,-2.3 0,-3.2 L 57.8,55.2 c 0.9,-0.9 2.3,-0.9 3.2,0 0.9,0.9 0.9,2.3 0,3.2 l -45.2,45.2 c -0.5,0.5 -1,0.7 -1.6,0.7 z" /></g><g
     id="g19"
     transform="translate(0,0.8999939)"><path
       style="fill:#0db9e9"
       inkscape:connector-curvature="0"
       id="path21"
       d="m 20,110.1 c -0.6,0 -1.2,-0.2 -1.6,-0.7 -0.9,-0.9 -0.9,-2.3 0,-3.2 L 63.6,61 c 0.9,-0.9 2.3,-0.9 3.2,0 0.9,0.9 0.9,2.3 0,3.2 l -45.2,45.2 c -0.4,0.5 -1,0.7 -1.6,0.7 z" /></g><g
     id="g23"
     transform="translate(0,0.8999939)"><path
       style="fill:#0db9e9"
       inkscape:connector-curvature="0"
       id="path25"
       d="m 26.3,116.4 c -0.6,0 -1.2,-0.2 -1.6,-0.7 -0.9,-0.9 -0.9,-2.3 0,-3.2 L 69.9,67.3 c 0.9,-0.9 2.3,-0.9 3.2,0 0.9,0.9 0.9,2.3 0,3.2 l -45.2,45.2 c -0.4,0.5 -1,0.7 -1.6,0.7 z" /></g><g
     id="g27"
     transform="translate(0,0.8999939)"><polygon
       style="fill:#0db9e9"
       id="polygon29"
       points="45.9,114.6 71.9,88.6 71.9,77.1 37.7,42.9 26.2,42.9 0.3,68.9 0.3,80.4 34.4,114.6 " /></g><g
     id="g67"
     style="fill:#000080;fill-opacity:0.43050848"
     transform="translate(0,0.8999939)"><path
       d="m 55.3,143.2 c 8.2,0 19.8,-28.5 26,-63.7 6.2,-35.2 4.6,-63.7 -3.6,-63.7 -8.2,0 -19.8,28.5 -26,63.7 -6.2,35.2 -4.6,63.7 3.6,63.7"
       id="path69"
       inkscape:connector-curvature="0"
       style="fill:#000080;fill-opacity:0.43050848;filter:url(#filter4230)" /></g><path
     style="fill:#ffffff"
     d="m 86.5,0.8999939 -25.7,0 -28.1,159.0999961 53.8,0 z"
     id="polygon73"
     inkscape:connector-curvature="0"
     sodipodi:nodetypes="ccccc" /></svg>